<!DOCTYPE svg PUBLIC "-//W3C//DTD SVG 1.1//EN" "http://www.w3.org/Graphics/SVG/1.1/DTD/svg11.dtd">
<!-- Uploaded to: SVG Repo, www.svgrepo.com, Transformed by: SVG Repo Mixer Tools -->
<svg fill="#E7E9EA" width="800px" height="800px" viewBox="-5.5 0 32 32" version="1.1" xmlns="http://www.w3.org/2000/svg">
<g id="SVGRepo_bgCarrier" stroke-width="0"/>
<g id="SVGRepo_tracerCarrier" stroke-linecap="round" stroke-linejoin="round"/>
<g id="SVGRepo_iconCarrier"> <title>envelope</title> <path d="M18 8.32h-15.12c-1.56 0-2.84 1.28-2.84 2.84v9.64c0 1.56 1.28 2.84 2.84 2.84h15.12c1.56 0 2.84-1.28 2.84-2.84v-9.64c0-1.56-1.24-2.84-2.84-2.84zM2.88 10h15.12c0.64 0 1.16 0.52 1.16 1.16v0.4l-8.040 5.6c-0.36 0.24-1.040 0.24-1.4 0l-8.040-5.6v-0.4c0.040-0.64 0.56-1.16 1.2-1.16zM18 22h-15.12c-0.64 0-1.16-0.52-1.16-1.16v-7.24l7.080 4.92c0.48 0.32 1.080 0.48 1.68 0.48s1.2-0.16 1.68-0.48l7.040-4.92v7.2c0 0.68-0.56 1.2-1.2 1.2z"/> </g>
</svg>