<svg width="39" height="39" viewBox="0 0 39 39" fill="none" xmlns="http://www.w3.org/2000/svg">
<path d="M26 17.5V15.8H21.6V22.2H23.3V20.2H25.3V18.5H23.3V17.5H26ZM18.7 15.8H20.4V22.2H18.7V15.8ZM15.1 17.4C15.5 17.4 16 17.6 16.3 17.9L17.5 16.9C16.9 16.2 16 15.8 15.1 15.8C13.3 15.8 11.9 17.2 11.9 19C11.9 20.8 13.3 22.2 15.1 22.2C16.1 22.2 16.9 21.8 17.5 21.1V18.6H14.7V19.8H15.9V20.4C15.7 20.5 15.4 20.6 15.1 20.6C14.2 20.6 13.5 19.9 13.5 19C13.5 18.2 14.2 17.4 15.1 17.4Z" fill="#1DA1F2"/>
<path d="M27.5 9.01999H10.5C9.26 9.01999 8.25 10.027 8.25 11.267V26.774C8.25 28.012 9.26 29.02 10.5 29.02H27.5C28.74 29.02 29.75 28.012 29.75 26.774V11.267C29.75 10.027 28.74 9.01999 27.5 9.01999ZM28.25 26.774C28.25 27.184 27.914 27.52 27.5 27.52H10.5C10.086 27.52 9.75 27.184 9.75 26.774V11.267C9.75 10.855 10.086 10.52 10.5 10.52H27.5C27.914 10.52 28.25 10.855 28.25 11.267V26.774Z" fill="#1DA1F2"/>
</svg>
