<!DOCTYPE svg PUBLIC "-//W3C//DTD SVG 1.1//EN" "http://www.w3.org/Graphics/SVG/1.1/DTD/svg11.dtd">
<!-- Uploaded to: SVG Repo, www.svgrepo.com, Transformed by: SVG Repo Mixer Tools -->
<svg fill="#FFFFFF" height="800px" width="800px" version="1.1" id="Layer_1" xmlns="http://www.w3.org/2000/svg" xmlns:xlink="http://www.w3.org/1999/xlink" viewBox="0 0 512 512" xml:space="preserve" transform="rotate(180)" stroke="#FFFFFF">
<g id="SVGRepo_bgCarrier" stroke-width="0"/>
<g id="SVGRepo_tracerCarrier" stroke-linecap="round" stroke-linejoin="round"/>
<g id="SVGRepo_iconCarrier"> <g> <g> <g> <path d="M0,0v512h512V0H0z M469.333,469.333H42.667V42.667h426.667V469.333z"/> <path d="M128.106,364.772c0.031,0.318,0.091,0.627,0.136,0.941c0.054,0.375,0.097,0.75,0.171,1.122 c0.071,0.359,0.17,0.708,0.259,1.061c0.081,0.322,0.152,0.645,0.248,0.964c0.105,0.346,0.234,0.68,0.356,1.018 c0.114,0.318,0.219,0.639,0.349,0.953c0.131,0.315,0.284,0.618,0.43,0.925c0.153,0.324,0.296,0.65,0.466,0.967 c0.158,0.295,0.338,0.575,0.509,0.861c0.185,0.311,0.361,0.625,0.564,0.928c0.212,0.316,0.447,0.614,0.675,0.918 c0.19,0.253,0.365,0.513,0.567,0.759c0.443,0.54,0.91,1.059,1.403,1.552c0.004,0.004,0.006,0.008,0.01,0.011 c0.004,0.004,0.008,0.007,0.012,0.011c0.493,0.492,1.012,0.959,1.551,1.402c0.247,0.203,0.507,0.379,0.76,0.568 c0.304,0.227,0.601,0.463,0.917,0.674c0.303,0.203,0.618,0.379,0.93,0.565c0.286,0.171,0.565,0.35,0.86,0.508 c0.318,0.17,0.645,0.314,0.969,0.467c0.307,0.145,0.609,0.298,0.923,0.428c0.315,0.13,0.636,0.235,0.956,0.35 c0.337,0.121,0.67,0.25,1.015,0.355c0.32,0.097,0.645,0.168,0.968,0.249c0.351,0.089,0.698,0.187,1.056,0.258 c0.375,0.074,0.753,0.118,1.13,0.172c0.311,0.044,0.618,0.104,0.933,0.135c0.7,0.069,1.402,0.106,2.104,0.106 c0,0,0.001,0,0.001,0h128c11.782,0,21.333-9.551,21.333-21.333s-9.551-21.333-21.333-21.333h-76.497l176.915-176.915 c8.331-8.331,8.331-21.839,0-30.17c-8.331-8.331-21.839-8.331-30.17,0L170.667,311.163v-76.497 c0-11.782-9.551-21.333-21.333-21.333c-11.782,0-21.333,9.551-21.333,21.333v128c0,0.007,0.001,0.015,0.001,0.022 C128.002,363.384,128.038,364.079,128.106,364.772z"/> </g> </g> </g> </g>
</svg>