<?xml version="1.0" encoding="UTF-8" standalone="no" ?>
<!DOCTYPE svg PUBLIC "-//W3C//DTD SVG 1.1//EN" "http://www.w3.org/Graphics/SVG/1.1/DTD/svg11.dtd">
<svg xmlns="http://www.w3.org/2000/svg" xmlns:xlink="http://www.w3.org/1999/xlink" version="1.1" width="1080" height="1080" viewBox="0 0 1080 1080" xml:space="preserve">
<desc>Created with Fabric.js 5.2.4</desc>
<defs>
</defs>
<g transform="matrix(1 0 0 1 540 540)" id="f2eede5e-8edc-455e-856b-5cf98f2a1ce9"  >
<rect style="stroke: none; stroke-width: 1; stroke-dasharray: none; stroke-linecap: butt; stroke-dashoffset: 0; stroke-linejoin: miter; stroke-miterlimit: 4; fill: rgb(0,0,0); fill-rule: nonzero; opacity: 1; visibility: hidden;" vector-effect="non-scaling-stroke"  x="-540" y="-540" rx="0" ry="0" width="1080" height="1080" />
</g>
<g transform="matrix(1 0 0 1 540 540)" id="ac2ae5df-26e5-4694-b6c4-0954d526d455"  >
</g>
<g transform="matrix(45 0 0 45 540 540)"  >
<path style="stroke: none; stroke-width: 1; stroke-dasharray: none; stroke-linecap: butt; stroke-dashoffset: 0; stroke-linejoin: miter; stroke-miterlimit: 4; fill: rgb(255,255,255); fill-rule: nonzero; opacity: 1;"  transform=" translate(-12, -12)" d="M 11.999 22.25 C 6.347 22.25 1.7490000000000006 17.652 1.7490000000000006 12 C 1.7490000000000006 6.347999999999999 6.347 1.75 11.999 1.75 C 17.651 1.75 22.249 6.348 22.249 12 C 22.249 17.652 17.651 22.25 11.998999999999999 22.25 z M 11.999 3.75 C 7.45 3.75 3.7490000000000006 7.4510000000000005 3.7490000000000006 12 C 3.7490000000000006 16.549 7.450000000000001 20.25 11.999 20.25 C 16.548000000000002 20.25 20.249000000000002 16.549 20.249000000000002 12 C 20.249000000000002 7.4510000000000005 16.548000000000002 3.75 11.999000000000002 3.75 z M 12.444 10.742 C 14.191 10.646 16.192 10.053 16.212 10.047 L 16.787 11.963000000000001 C 16.709999999999997 11.985000000000001 15.171 12.443000000000001 13.498999999999999 12.652000000000001 L 13.498999999999999 13.15 C 13.786 14.377 15.185999999999998 16.016000000000002 15.713 16.555 L 14.285 17.955 C 14.097 17.764 12.767 16.378999999999998 11.999 14.810999999999998 C 11.23 16.378999999999998 9.901 17.762999999999998 9.713000000000001 17.955 L 8.285 16.555 C 8.812 16.015 10.212 14.376999999999999 10.499 13.15 L 10.499 12.652000000000001 C 8.827 12.443000000000001 7.288 11.985000000000001 7.211 11.963000000000001 L 7.7860000000000005 10.047 C 7.806 10.053 9.807 10.647 11.554 10.742 M 11.554 10.742 C 11.855 10.759 12.144 10.759 12.445 10.742 M 12 6.25 C 11.033 6.25 10.25 7.03 10.25 8 C 10.25 8.969999999999999 11.033 9.75 12 9.75 C 12.967 9.75 13.75 8.97 13.75 8 C 13.75 7.029999999999999 12.966 6.25 12 6.25 z" stroke-linecap="round" />
</g>
</svg>