<?xml version="1.0" encoding="UTF-8" standalone="no" ?>
<!DOCTYPE svg PUBLIC "-//W3C//DTD SVG 1.1//EN" "http://www.w3.org/Graphics/SVG/1.1/DTD/svg11.dtd">
<svg xmlns="http://www.w3.org/2000/svg" xmlns:xlink="http://www.w3.org/1999/xlink" version="1.1" width="1080" height="1080" viewBox="0 0 1080 1080" xml:space="preserve">
<desc>Created with Fabric.js 5.2.4</desc>
<defs>
</defs>
<rect x="0" y="0" width="100%" height="100%" fill="transparent"></rect>
<g transform="matrix(1 0 0 1 540 540)" id="53b52bfd-1590-455a-a9f9-ca20e4ca0172"  >
<rect style="stroke: none; stroke-width: 1; stroke-dasharray: none; stroke-linecap: butt; stroke-dashoffset: 0; stroke-linejoin: miter; stroke-miterlimit: 4; fill: rgb(0,0,0); fill-rule: nonzero; opacity: 1; visibility: hidden;" vector-effect="non-scaling-stroke"  x="-540" y="-540" rx="0" ry="0" width="1080" height="1080" />
</g>
<g transform="matrix(1 0 0 1 540 540)" id="49e3c55b-87d9-4173-8f59-a00eef883c5c"  >
</g>
<g transform="matrix(45 0 0 45 540 540)"  >
<path style="stroke: none; stroke-width: 1; stroke-dasharray: none; stroke-linecap: butt; stroke-dashoffset: 0; stroke-linejoin: miter; stroke-miterlimit: 4; fill: rgb(255,255,255); fill-rule: nonzero; opacity: 1;"  transform=" translate(-12.25, -12)" d="M 16.5 3 L 2 3 L 2 21 L 17 21 C 20.038 21 22.5 18.54 22.5 15.5 C 22.5 14.1 21.976 12.82 21.115 11.85 C 21.035 11.76 21.026 11.629999999999999 21.092 11.53 C 21.666 10.66 22 9.62 22 8.5 C 22 5.46 19.538 3 16.5 3 z M 15.704 8.99 C 16.161 8.94 16.596 8.82 17 8.64 C 16.698 9.09 16.316 9.48 15.875 9.790000000000001 C 15.879 9.89 15.881 9.98 15.881 10.08 C 15.881 13.02 13.612 16.4 9.46 16.4 C 8.186 16.4 7.000000000000001 16.029999999999998 6.001000000000001 15.399999999999999 C 6.178000000000001 15.419999999999998 6.358000000000001 15.429999999999998 6.540000000000001 15.429999999999998 C 7.597000000000001 15.429999999999998 8.57 15.079999999999998 9.343 14.479999999999999 C 8.355 14.459999999999999 7.522 13.819999999999999 7.234 12.939999999999998 C 7.372 12.969999999999997 7.514 12.979999999999997 7.659 12.979999999999997 C 7.865 12.979999999999997 8.064 12.949999999999998 8.254 12.899999999999997 C 7.221 12.699999999999998 6.443 11.799999999999997 6.443 10.719999999999997 L 6.443 10.689999999999998 C 6.747999999999999 10.859999999999998 7.095 10.959999999999997 7.465999999999999 10.969999999999997 C 6.859999999999999 10.569999999999997 6.462 9.889999999999997 6.462 9.119999999999997 C 6.462 8.719999999999997 6.5729999999999995 8.339999999999998 6.7669999999999995 8.009999999999998 C 7.879999999999999 9.349999999999998 9.542 10.229999999999999 11.419 10.329999999999998 C 11.381 10.159999999999998 11.361 9.999999999999998 11.361 9.819999999999999 C 11.361 8.589999999999998 12.371 7.599999999999998 13.617 7.599999999999998 C 14.266000000000002 7.599999999999998 14.852 7.869999999999997 15.264000000000001 8.299999999999997 C 15.778 8.199999999999998 16.261000000000003 8.019999999999998 16.697000000000003 7.759999999999997 C 16.529000000000003 8.279999999999998 16.171000000000003 8.719999999999997 15.705000000000002 8.989999999999997 z" stroke-linecap="round" />
</g>
</svg>