<?xml version="1.0" encoding="UTF-8" standalone="no" ?>
<!DOCTYPE svg PUBLIC "-//W3C//DTD SVG 1.1//EN" "http://www.w3.org/Graphics/SVG/1.1/DTD/svg11.dtd">
<svg xmlns="http://www.w3.org/2000/svg" xmlns:xlink="http://www.w3.org/1999/xlink" version="1.1" width="1080" height="1080" viewBox="0 0 1080 1080" xml:space="preserve">
<desc>Created with Fabric.js 5.2.4</desc>
<defs>
</defs>
<g transform="matrix(1 0 0 1 540 540)" id="1dd09abc-8ef8-4e51-9920-2f8e19204c59"  >
<rect style="stroke: none; stroke-width: 1; stroke-dasharray: none; stroke-linecap: butt; stroke-dashoffset: 0; stroke-linejoin: miter; stroke-miterlimit: 4; fill: rgb(0,0,0); fill-rule: nonzero; opacity: 1; visibility: hidden;" vector-effect="non-scaling-stroke"  x="-540" y="-540" rx="0" ry="0" width="1080" height="1080" />
</g>
<g transform="matrix(1 0 0 1 540 540)" id="80bb3007-64a3-4b39-8946-5202f2fdfee7"  >
</g>
<g transform="matrix(14.21 0 0 14.21 540 540)"  >
<path style="stroke: none; stroke-width: 1; stroke-dasharray: none; stroke-linecap: butt; stroke-dashoffset: 0; stroke-linejoin: miter; stroke-miterlimit: 4; fill: rgb(255,255,255); fill-rule: nonzero; opacity: 1;"  transform=" translate(-38.26, -12.05)" d="M 16.5 3 L 2 3 L 2 21 L 17 21 C 20.038 21 22.5 18.54 22.5 15.5 C 22.5 14.1 21.976 12.82 21.115 11.85 C 21.035 11.76 21.026 11.629999999999999 21.092 11.53 C 21.666 10.66 22 9.62 22 8.5 C 22 5.46 19.538 3 16.5 3 z M 15.704 8.99 C 16.161 8.94 16.596 8.82 17 8.64 C 16.698 9.09 16.316 9.48 15.875 9.790000000000001 C 15.879 9.89 15.881 9.98 15.881 10.08 C 15.881 13.02 13.612 16.4 9.46 16.4 C 8.186 16.4 7.000000000000001 16.029999999999998 6.001000000000001 15.399999999999999 C 6.178000000000001 15.419999999999998 6.358000000000001 15.429999999999998 6.540000000000001 15.429999999999998 C 7.597000000000001 15.429999999999998 8.57 15.079999999999998 9.343 14.479999999999999 C 8.355 14.459999999999999 7.522 13.819999999999999 7.234 12.939999999999998 C 7.372 12.969999999999997 7.514 12.979999999999997 7.659 12.979999999999997 C 7.865 12.979999999999997 8.064 12.949999999999998 8.254 12.899999999999997 C 7.221 12.699999999999998 6.443 11.799999999999997 6.443 10.719999999999997 L 6.443 10.689999999999998 C 6.747999999999999 10.859999999999998 7.095 10.959999999999997 7.465999999999999 10.969999999999997 C 6.859999999999999 10.569999999999997 6.462 9.889999999999997 6.462 9.119999999999997 C 6.462 8.719999999999997 6.5729999999999995 8.339999999999998 6.7669999999999995 8.009999999999998 C 7.879999999999999 9.349999999999998 9.542 10.229999999999999 11.419 10.329999999999998 C 11.381 10.159999999999998 11.361 9.999999999999998 11.361 9.819999999999999 C 11.361 8.589999999999998 12.371 7.599999999999998 13.617 7.599999999999998 C 14.266000000000002 7.599999999999998 14.852 7.869999999999997 15.264000000000001 8.299999999999997 C 15.778 8.199999999999998 16.261000000000003 8.019999999999998 16.697000000000003 7.759999999999997 C 16.529000000000003 8.279999999999998 16.171000000000003 8.719999999999997 15.705000000000002 8.989999999999997 z M 30.862000000000002 21.003 L 25.64 21.003 L 25.64 2.625 L 30.862000000000002 2.625 L 30.862000000000002 21.003 z M 41.212 21.485 C 39.04900000000001 21.485 37.368 20.945 36.168000000000006 19.863 C 34.98500000000001 18.781 34.39300000000001 17.243 34.39300000000001 15.248999999999999 L 34.39300000000001 8.33 L 39.61500000000001 8.33 L 39.61500000000001 13.956 C 39.61500000000001 15.326 39.94500000000001 16.322 40.60500000000001 16.945999999999998 C 41.26300000000001 17.572999999999997 42.17500000000001 17.886 43.34200000000001 17.886 C 44.77800000000001 17.886 45.87700000000001 17.496 46.637000000000015 16.718999999999998 C 47.39700000000001 15.923999999999998 47.777000000000015 14.918999999999997 47.777000000000015 13.701999999999998 L 47.777000000000015 8.33 L 53 8.33 L 53 21.003 L 47.88 21.003 L 47.88 18.113 C 47.32 19.213 46.45 20.049 45.268 20.622999999999998 C 44.085 21.197999999999997 42.733000000000004 21.484999999999996 41.212 21.484999999999996 z M 74.523 15.756 L 60.53 15.756 C 60.716 16.55 61.230000000000004 17.166 62.076 17.606 C 62.921 18.046000000000003 64.019 18.266000000000002 65.371 18.266000000000002 C 66.371 18.266000000000002 67.28099999999999 18.114 68.11099999999999 17.809 C 68.95499999999998 17.487000000000002 69.606 17.049 70.06099999999999 16.489 L 74.017 18.214000000000002 C 73.121 19.279000000000003 71.92099999999999 20.090000000000003 70.417 20.647000000000002 C 68.93 21.205000000000002 67.172 21.484 65.144 21.484 C 63.150000000000006 21.484 61.434000000000005 21.222 59.998000000000005 20.698 C 58.562000000000005 20.156 57.455000000000005 19.378 56.678000000000004 18.365000000000002 C 55.918000000000006 17.335 55.538000000000004 16.117 55.538000000000004 14.715000000000002 C 55.538000000000004 13.295000000000002 55.926 12.070000000000002 56.703 11.039000000000001 C 57.480000000000004 10.009000000000002 58.579 9.223 59.998000000000005 8.683000000000002 C 61.435 8.125000000000002 63.108000000000004 7.846000000000002 65.018 7.846000000000002 C 67.012 7.846000000000002 68.718 8.142000000000001 70.138 8.733000000000002 C 71.575 9.308000000000002 72.665 10.136000000000003 73.408 11.218000000000002 C 74.152 12.298000000000002 74.524 13.591000000000001 74.524 15.095000000000002 L 74.524 15.755000000000003 z M 69.35 13.171 C 69.318 12.411 68.895 11.793999999999999 68.08399999999999 11.321 C 67.28999999999999 10.847999999999999 66.25899999999999 10.611 64.99099999999999 10.611 C 63.740999999999985 10.611 62.71899999999999 10.839 61.92499999999998 11.295 C 61.130999999999986 11.752 60.65799999999998 12.377 60.50499999999998 13.171 L 69.34999999999998 13.171 z" stroke-linecap="round" />
</g>
</svg>